<svg xmlns="http://www.w3.org/2000/svg" viewBox="0 0 40 64" width="40" height="64">
  <!-- PLACEHOLDER pilgrim figure — replace with real artwork.
       Faces right by default; the renderer flips it horizontally when
       travelling left, so keep the design roughly symmetric front-to-back. -->
  <ellipse cx="20" cy="60" rx="10" ry="3" fill="#000000" opacity="0.15"/>
  <!-- Cloak/body -->
  <path d="M20 20 C11 20 8 30 9 44 C9.5 52 12 58 15 60 L25 60 C28 58 30.5 52 31 44 C32 30 29 20 20 20 Z"
        fill="#5a4632" stroke="#3a2c1e" stroke-width="1.5"/>
  <!-- Walking staff -->
  <line x1="30" y1="26" x2="34" y2="60" stroke="#8a6a44" stroke-width="2.5" stroke-linecap="round"/>
  <!-- Head -->
  <circle cx="20" cy="12" r="9" fill="#d9b98a" stroke="#3a2c1e" stroke-width="1.5"/>
  <!-- Hood -->
  <path d="M11 13 C10 5 15 1 20 1 C25 1 30 5 29 13 C29 8 25 5 20 5 C15 5 11 8 11 13 Z"
        fill="#7a5c3c" stroke="#3a2c1e" stroke-width="1.5"/>
</svg>
